# xmcd
#
# Track frame offsets: 
#        150
#        23890
#        44493
#        66620
#        91415
#        113428
#        140658
#        170645
#
# Disc length: 2615 seconds
#
# Revision: 2
# Processed by: cddbd v1.5.1PL2 Copyright (c) Steve Scherf et al.
# Submitted via: ExactAudioCopy v0.95b3
#
DISCID=710a3508
DTITLE=Amina Claudine Myers - Amina
DYEAR=1988
DGENRE=Jazz
TTITLE0=Happiness
TTITLE1=Keep On Loving
TTITLE2=Yes, It's Real
TTITLE3=Song From The West
TTITLE4=Nolan
TTITLE5=Arms
TTITLE6=B.I.
TTITLE7=Nisamehe
EXTD=more info - MillenniumMusicProjectFormat - SYNTAX=SongTitle{Subtit
EXTD=le}[miscInfo](Lyricist;Composer;Date,Artist,Location,State,Countr
EXTD=y)
EXTT0=
EXTT1=
EXTT2=
EXTT3=
EXTT4=
EXTT5=
EXTT6=
EXTT7=
PLAYORDER=
